<svg width="51" height="48" viewBox="0 0 51 48" fill="none" xmlns="http://www.w3.org/2000/svg">
<rect y="12" width="16" height="23" rx="1" fill="white"/>
<path d="M0.911886 24.7658C0.436012 24.3662 0.436013 23.6338 0.911888 23.2342L23.1069 4.59523C23.7575 4.04885 24.75 4.51141 24.75 5.36102L24.75 42.639C24.75 43.4886 23.7575 43.9511 23.1069 43.4048L0.911886 24.7658Z" fill="white"/>
<path d="M40 9V9C46.301 17.4014 46.6604 28.8509 40.8985 37.6308L40 39" stroke="white" stroke-width="3" stroke-linecap="round"/>
<path d="M33 11V11C39.0674 17.7416 39.4006 27.8723 33.7891 34.9979L33 36" stroke="white" stroke-width="2" stroke-linecap="round"/>
<path d="M28 14V14C33.7105 19.076 34.0046 27.9001 28.6447 33.345L28 34" stroke="white" stroke-width="1.5" stroke-linecap="round"/>
</svg>
